<svg width="434" height="428" viewBox="0 0 434 428" fill="none" xmlns="http://www.w3.org/2000/svg">
<ellipse cx="217" cy="214" rx="217" ry="214" fill="#1b1b1b"/>
<path fill-rule="evenodd" clip-rule="evenodd" d="M195.643 200.771C190.662 206.729 183.045 209.707 172.791 209.707C164.295 209.707 156.971 207.021 150.818 201.65C144.471 195.986 141.297 187.051 141.297 174.844C141.297 164.785 144.178 156.289 149.939 149.355C154.92 143.398 162.537 140.42 172.791 140.42C181.385 140.42 188.709 143.105 194.764 148.477C197.188 150.64 199.15 153.26 200.648 156.335V192.831C199.335 195.689 197.667 198.336 195.643 200.771ZM200.648 211.213L172.791 232.852C154.627 231.582 140.418 226.895 130.164 218.789C118.055 209.219 112 194.717 112 175.283V164.297L172.791 117.275C185.096 118.154 195.594 120.596 204.285 124.6V117.568C204.285 105.752 201.111 96.9629 194.764 91.2012C188.709 85.8301 181.385 83.1445 172.791 83.1445C163.221 83.1445 155.604 86.123 149.939 92.0801L141.883 83.877L172.791 60C191.248 61.2695 205.457 65.957 215.418 74.0625C227.527 83.9258 233.582 98.4277 233.582 117.568V216.638L261.439 195C279.896 196.27 294.105 200.957 304.066 209.062C316.176 218.926 322.23 233.428 322.23 252.568V320.83L261.439 367.852C242.787 366.582 228.578 361.895 218.812 353.789C206.703 343.73 200.648 329.229 200.648 310.283V211.213ZM284.145 335.771C278.285 341.729 270.717 344.707 261.439 344.707C252.748 344.707 245.326 342.021 239.174 336.65C233.021 331.279 229.945 322.49 229.945 310.283V252.568C229.945 241.533 232.826 233.037 238.588 227.08C244.35 221.123 251.967 218.145 261.439 218.145C270.131 218.145 277.455 220.83 283.412 226.201C289.76 231.963 292.934 240.752 292.934 252.568V310.283C292.934 321.318 290.004 329.814 284.145 335.771Z" fill="#23D997"/>
</svg>
