<svg width="211" height="308" viewBox="0 0 211 308" fill="none" xmlns="http://www.w3.org/2000/svg">
<path fill-rule="evenodd" clip-rule="evenodd" d="M84.291 140.779C79.3105 146.736 71.6934 149.715 61.4395 149.715C52.9434 149.715 45.6191 147.029 39.4668 141.658C33.1191 135.994 29.9453 127.059 29.9453 114.852C29.9453 104.793 32.8262 96.2969 38.5879 89.3633C43.5684 83.4062 51.1855 80.4277 61.4395 80.4277C70.0332 80.4277 77.3574 83.1133 83.4121 88.4844C85.8368 90.6479 87.7984 93.2675 89.2969 96.3429V132.839C87.9838 135.697 86.3152 138.343 84.291 140.779ZM89.2969 151.221L61.4395 172.859C43.2754 171.59 29.0664 166.902 18.8125 158.797C6.70312 149.227 0.648438 134.725 0.648438 115.291V104.305L61.4395 57.2832C73.7441 58.1621 84.2422 60.6035 92.9336 64.6074V57.5762C92.9336 45.7598 89.7598 36.9707 83.4121 31.209C77.3574 25.8379 70.0332 23.1523 61.4395 23.1523C51.8691 23.1523 44.252 26.1309 38.5879 32.0879L30.5312 23.8848L61.4395 0.0078125C79.8965 1.27734 94.1055 5.96484 104.066 14.0703C116.176 23.9336 122.23 38.4355 122.23 57.5762V156.646L150.088 135.008C168.545 136.277 182.754 140.965 192.715 149.07C204.824 158.934 210.879 173.436 210.879 192.576V260.838L150.088 307.859C131.436 306.59 117.227 301.902 107.461 293.797C95.3516 283.738 89.2969 269.236 89.2969 250.291V151.221ZM172.793 275.779C166.934 281.736 159.365 284.715 150.088 284.715C141.396 284.715 133.975 282.029 127.822 276.658C121.67 271.287 118.594 262.498 118.594 250.291V192.576C118.594 181.541 121.475 173.045 127.236 167.088C132.998 161.131 140.615 158.152 150.088 158.152C158.779 158.152 166.104 160.838 172.061 166.209C178.408 171.971 181.582 180.76 181.582 192.576V250.291C181.582 261.326 178.652 269.822 172.793 275.779Z" fill="#23D997"/>
</svg>
